<?xml version="1.0" encoding="UTF-8" standalone="no"?>
<!DOCTYPE svg PUBLIC "-//W3C//DTD SVG 1.1//EN"
 "http://www.w3.org/Graphics/SVG/1.1/DTD/svg11.dtd">
<!-- Generated by graphviz version 2.38.0 (20140413.2041)
 -->
<!-- Title: PROV Pages: 1 -->
<svg width="1152pt" height="707pt"
 viewBox="0.00 0.00 1152.00 706.68" xmlns="http://www.w3.org/2000/svg" xmlns:xlink="http://www.w3.org/1999/xlink">
<g id="graph0" class="graph" transform="scale(0.910672 0.910672) rotate(0) translate(4 772)">
<title>PROV</title>
<polygon fill="white" stroke="none" points="-4,4 -4,-772 1261,-772 1261,4 -4,4"/>
<g id="clust1" class="cluster"><title>clusterhttp://barsetshire&#45;la.comEnvironment&#45;2</title>
<g id="a_clust1"><a xlink:href="http://barsetshire-la.comEnvironment-2" xlink:title="Environment&#45;2">
<polygon fill="none" stroke="black" points="778,-8 778,-374 1249,-374 1249,-8 778,-8"/>
<text text-anchor="middle" x="1013.5" y="-15.8" font-family="Times,serif" font-size="14.00">Environment&#45;2</text>
</a>
</g>
</g>
<g id="clust2" class="cluster"><title>clusterhttp://pubt.comEnvironment&#45;1</title>
<g id="a_clust2"><a xlink:href="http://pubt.comEnvironment-1" xlink:title="Environment&#45;1">
<polygon fill="none" stroke="black" points="8,-299 8,-760 770,-760 770,-299 8,-299"/>
<text text-anchor="middle" x="389" y="-306.8" font-family="Times,serif" font-size="14.00">Environment&#45;1</text>
</a>
</g>
</g>
<!-- http://barsetshire&#45;la.comReceive -->
<g id="node1" class="node"><title>http://barsetshire&#45;la.comReceive</title>
<g id="a_node1"><a xlink:href="http://barsetshire-la.comReceive" xlink:title="Receive">
<polygon fill="#9fb1fc" stroke="#0000ff" points="884.5,-366 815.5,-366 815.5,-330 884.5,-330 884.5,-366"/>
<text text-anchor="middle" x="850" y="-344.3" font-family="Times,serif" font-size="14.00">Receive</text>
</a>
</g>
</g>
<!-- http://pubt.comShare -->
<g id="node12" class="node"><title>http://pubt.comShare</title>
<g id="a_node12"><a xlink:href="http://pubt.comShare" xlink:title="Share">
<polygon fill="#9fb1fc" stroke="#0000ff" points="368,-444.5 314,-444.5 314,-408.5 368,-408.5 368,-444.5"/>
<text text-anchor="middle" x="341" y="-422.8" font-family="Times,serif" font-size="14.00">Share</text>
</a>
</g>
</g>
<!-- http://barsetshire&#45;la.comReceive&#45;&gt;http://pubt.comShare -->
<g id="edge26" class="edge"><title>http://barsetshire&#45;la.comReceive&#45;&gt;http://pubt.comShare</title>
<path fill="none" stroke="black" d="M815.294,-362.42C802.499,-366.832 787.765,-371.294 774,-374 600.439,-408.119 544.659,-345.626 377,-402 375.541,-402.491 374.083,-403.055 372.636,-403.677"/>
<polygon fill="black" stroke="black" points="370.621,-400.779 363.339,-408.475 373.831,-406.999 370.621,-400.779"/>
<text text-anchor="middle" x="812.372" y="-375.233" font-family="Times,serif" font-size="8.00">inf</text>
</g>
<!-- &#45;attrs0 -->
<g id="node2" class="node"><title>&#45;attrs0</title>
<polygon fill="none" stroke="gray" points="1235.5,-291 932.5,-291 932.5,-255 1241.5,-255 1241.5,-285 1235.5,-291"/>
<polyline fill="none" stroke="gray" points="1235.5,-291 1235.5,-285 "/>
<polyline fill="none" stroke="gray" points="1241.5,-285 1235.5,-285 "/>
<text text-anchor="start" x="943" y="-277" font-family="Times,serif" font-size="10.00">type:</text>
<text text-anchor="start" x="991" y="-277" font-family="Times,serif" font-size="10.00">receive</text>
<text text-anchor="start" x="943" y="-264" font-family="Times,serif" font-size="10.00">label:</text>
<text text-anchor="start" x="991" y="-264" font-family="Times,serif" font-size="10.00">receiving dc version of the data</text>
</g>
<!-- &#45;attrs0&#45;&gt;http://barsetshire&#45;la.comReceive -->
<g id="edge1" class="edge"><title>&#45;attrs0&#45;&gt;http://barsetshire&#45;la.comReceive</title>
<path fill="none" stroke="gray" stroke-dasharray="5,2" d="M1031.73,-291.023C986.322,-305.011 923.39,-324.395 884.753,-336.295"/>
</g>
<!-- http://barsetshire&#45;la.comTransportProvision -->
<g id="node3" class="node"><title>http://barsetshire&#45;la.comTransportProvision</title>
<g id="a_node3"><a xlink:href="http://barsetshire-la.comTransportProvision" xlink:title="TransportProvision">
<polygon fill="#9fb1fc" stroke="#0000ff" points="1132,-219 980,-219 980,-183 1132,-183 1132,-219"/>
<text text-anchor="middle" x="1056" y="-197.3" font-family="Times,serif" font-size="14.00">TransportProvision</text>
</a>
</g>
</g>
<!-- http://barsetshire&#45;la.comDCV_Dataset -->
<g id="node5" class="node"><title>http://barsetshire&#45;la.comDCV_Dataset</title>
<g id="a_node5"><a xlink:href="http://barsetshire-la.comDCV_Dataset" xlink:title="DCV_Dataset">
<ellipse fill="#fffc87" stroke="#808080" cx="850" cy="-273" rx="64.189" ry="18"/>
<text text-anchor="middle" x="850" y="-269.3" font-family="Times,serif" font-size="14.00">DCV_Dataset</text>
</a>
</g>
</g>
<!-- http://barsetshire&#45;la.comTransportProvision&#45;&gt;http://barsetshire&#45;la.comDCV_Dataset -->
<g id="edge4" class="edge"><title>http://barsetshire&#45;la.comTransportProvision&#45;&gt;http://barsetshire&#45;la.comDCV_Dataset</title>
<path fill="none" stroke="black" d="M1005.87,-219.034C973.383,-230.074 931.269,-244.384 899.007,-255.347"/>
<polygon fill="black" stroke="black" points="897.675,-252.103 889.333,-258.634 899.927,-258.731 897.675,-252.103"/>
<text text-anchor="middle" x="1002.95" y="-231.847" font-family="Times,serif" font-size="8.00">use</text>
</g>
<!-- http://barsetshire&#45;la.comOtherUse -->
<g id="node4" class="node"><title>http://barsetshire&#45;la.comOtherUse</title>
<g id="a_node4"><a xlink:href="http://barsetshire-la.comOtherUse" xlink:title="OtherUse">
<polygon fill="#9fb1fc" stroke="#0000ff" points="903.5,-219 826.5,-219 826.5,-183 903.5,-183 903.5,-219"/>
<text text-anchor="middle" x="865" y="-197.3" font-family="Times,serif" font-size="14.00">OtherUse</text>
</a>
</g>
</g>
<!-- http://barsetshire&#45;la.comOtherUse&#45;&gt;http://barsetshire&#45;la.comDCV_Dataset -->
<g id="edge5" class="edge"><title>http://barsetshire&#45;la.comOtherUse&#45;&gt;http://barsetshire&#45;la.comDCV_Dataset</title>
<path fill="none" stroke="black" d="M861.292,-219.303C859.639,-227.017 857.653,-236.288 855.81,-244.888"/>
<polygon fill="black" stroke="black" points="852.338,-244.384 853.665,-254.896 859.183,-245.851 852.338,-244.384"/>
<text text-anchor="middle" x="872.423" y="-227.459" font-family="Times,serif" font-size="8.00">use</text>
</g>
<!-- http://barsetshire&#45;la.comDCV_Dataset&#45;&gt;http://barsetshire&#45;la.comReceive -->
<g id="edge6" class="edge"><title>http://barsetshire&#45;la.comDCV_Dataset&#45;&gt;http://barsetshire&#45;la.comReceive</title>
<path fill="none" stroke="black" d="M850,-291.3C850,-299.755 850,-310.131 850,-319.627"/>
<polygon fill="black" stroke="black" points="846.5,-319.824 850,-329.824 853.5,-319.824 846.5,-319.824"/>
<text text-anchor="middle" x="862.99" y="-296.9" font-family="Times,serif" font-size="8.00">gen</text>
</g>
<!-- http://barsetshire&#45;la.comBarsetshireTransport -->
<g id="node6" class="node"><title>http://barsetshire&#45;la.comBarsetshireTransport</title>
<g id="a_node6"><a xlink:href="http://barsetshire-la.comBarsetshireTransport" xlink:title="BarsetshireTransport">
<ellipse fill="#fffc87" stroke="#808080" cx="1100" cy="-129" rx="108.581" ry="18"/>
<text text-anchor="middle" x="1100" y="-125.3" font-family="Times,serif" font-size="14.00">BarsetshireTransport</text>
</a>
</g>
</g>
<!-- http://barsetshire&#45;la.comBarsetshireTransport&#45;&gt;http://barsetshire&#45;la.comTransportProvision -->
<g id="edge7" class="edge"><title>http://barsetshire&#45;la.comBarsetshireTransport&#45;&gt;http://barsetshire&#45;la.comTransportProvision</title>
<path fill="none" stroke="black" d="M1089.35,-146.945C1084.24,-155.078 1078,-165.002 1072.31,-174.057"/>
<polygon fill="black" stroke="black" points="1069.22,-172.396 1066.86,-182.725 1075.14,-176.121 1069.22,-172.396"/>
<text text-anchor="middle" x="1096.36" y="-158.308" font-family="Times,serif" font-size="8.00">gen</text>
</g>
<!-- &#45;attrs1 -->
<g id="node7" class="node"><title>&#45;attrs1</title>
<polygon fill="none" stroke="gray" points="1207,-75 987,-75 987,-39 1213,-39 1213,-69 1207,-75"/>
<polyline fill="none" stroke="gray" points="1207,-75 1207,-69 "/>
<polyline fill="none" stroke="gray" points="1213,-69 1207,-69 "/>
<text text-anchor="start" x="997" y="-54" font-family="Times,serif" font-size="10.00">label:</text>
<text text-anchor="start" x="1045" y="-54" font-family="Times,serif" font-size="10.00">Barsetshire Transport</text>
</g>
<!-- &#45;attrs1&#45;&gt;http://barsetshire&#45;la.comBarsetshireTransport -->
<g id="edge2" class="edge"><title>&#45;attrs1&#45;&gt;http://barsetshire&#45;la.comBarsetshireTransport</title>
<path fill="none" stroke="gray" stroke-dasharray="5,2" d="M1100,-75.3034C1100,-86.1537 1100,-100.083 1100,-110.896"/>
</g>
<!-- http://barsetshire&#45;la.comBarsetshireOthers -->
<g id="node8" class="node"><title>http://barsetshire&#45;la.comBarsetshireOthers</title>
<g id="a_node8"><a xlink:href="http://barsetshire-la.comBarsetshireOthers" xlink:title="BarsetshireOthers">
<ellipse fill="#fffc87" stroke="#808080" cx="880" cy="-129" rx="93.6835" ry="18"/>
<text text-anchor="middle" x="880" y="-125.3" font-family="Times,serif" font-size="14.00">BarsetshireOthers</text>
</a>
</g>
</g>
<!-- http://barsetshire&#45;la.comBarsetshireOthers&#45;&gt;http://barsetshire&#45;la.comOtherUse -->
<g id="edge8" class="edge"><title>http://barsetshire&#45;la.comBarsetshireOthers&#45;&gt;http://barsetshire&#45;la.comOtherUse</title>
<path fill="none" stroke="black" d="M876.292,-147.303C874.639,-155.017 872.653,-164.288 870.81,-172.888"/>
<polygon fill="black" stroke="black" points="867.338,-172.384 868.665,-182.896 874.183,-173.851 867.338,-172.384"/>
<text text-anchor="middle" x="887.423" y="-155.459" font-family="Times,serif" font-size="8.00">gen</text>
</g>
<!-- &#45;attrs2 -->
<g id="node9" class="node"><title>&#45;attrs2</title>
<polygon fill="none" stroke="gray" points="961,-75 793,-75 793,-39 967,-39 967,-69 961,-75"/>
<polyline fill="none" stroke="gray" points="961,-75 961,-69 "/>
<polyline fill="none" stroke="gray" points="967,-69 961,-69 "/>
<text text-anchor="start" x="803" y="-54" font-family="Times,serif" font-size="10.00">label:</text>
<text text-anchor="start" x="851" y="-54" font-family="Times,serif" font-size="10.00">Other use case</text>
</g>
<!-- &#45;attrs2&#45;&gt;http://barsetshire&#45;la.comBarsetshireOthers -->
<g id="edge3" class="edge"><title>&#45;attrs2&#45;&gt;http://barsetshire&#45;la.comBarsetshireOthers</title>
<path fill="none" stroke="gray" stroke-dasharray="5,2" d="M880,-75.3034C880,-86.1537 880,-100.083 880,-110.896"/>
</g>
<!-- http://pubt.comDataProc -->
<g id="node10" class="node"><title>http://pubt.comDataProc</title>
<g id="a_node10"><a xlink:href="http://pubt.comDataProc" xlink:title="DataProc">
<polygon fill="#9fb1fc" stroke="#0000ff" points="433.5,-601.5 356.5,-601.5 356.5,-565.5 433.5,-565.5 433.5,-601.5"/>
<text text-anchor="middle" x="395" y="-579.8" font-family="Times,serif" font-size="14.00">DataProc</text>
</a>
</g>
</g>
<!-- http://pubt.comCPD -->
<g id="node14" class="node"><title>http://pubt.comCPD</title>
<g id="a_node14"><a xlink:href="http://pubt.comCPD" xlink:title="CPD">
<ellipse fill="#fffc87" stroke="#808080" cx="409" cy="-662" rx="27" ry="18"/>
<text text-anchor="middle" x="409" y="-658.3" font-family="Times,serif" font-size="14.00">CPD</text>
</a>
</g>
</g>
<!-- http://pubt.comDataProc&#45;&gt;http://pubt.comCPD -->
<g id="edge21" class="edge"><title>http://pubt.comDataProc&#45;&gt;http://pubt.comCPD</title>
<path fill="none" stroke="black" d="M398.177,-601.859C399.907,-611.315 402.087,-623.228 404.037,-633.88"/>
<polygon fill="black" stroke="black" points="400.641,-634.767 405.884,-643.973 407.527,-633.506 400.641,-634.767"/>
<text text-anchor="middle" x="412.305" y="-604.998" font-family="Times,serif" font-size="8.00">use</text>
</g>
<!-- http://pubt.comderek -->
<g id="node24" class="node"><title>http://pubt.comderek</title>
<g id="a_node24"><a xlink:href="http://pubt.comderek" xlink:title="derek">
<polygon fill="#fdb266" stroke="black" points="299.265,-667.562 256,-680 212.735,-667.562 212.776,-647.438 299.224,-647.438 299.265,-667.562"/>
<text text-anchor="middle" x="256" y="-658.3" font-family="Times,serif" font-size="14.00">derek</text>
</a>
</g>
</g>
<!-- http://pubt.comDataProc&#45;&gt;http://pubt.comderek -->
<g id="edge24" class="edge"><title>http://pubt.comDataProc&#45;&gt;http://pubt.comderek</title>
<path fill="none" stroke="black" d="M363.806,-601.668C341.856,-613.748 312.495,-629.908 289.956,-642.312"/>
<polygon fill="black" stroke="black" points="288.139,-639.317 281.066,-647.205 291.515,-645.449 288.139,-639.317"/>
<text text-anchor="middle" x="363.499" y="-614.765" font-family="Times,serif" font-size="8.00">assoc</text>
</g>
<!-- &#45;attrs3 -->
<g id="node11" class="node"><title>&#45;attrs3</title>
<polygon fill="none" stroke="gray" points="603.5,-523 436.5,-523 436.5,-487 609.5,-487 609.5,-517 603.5,-523"/>
<polyline fill="none" stroke="gray" points="603.5,-523 603.5,-517 "/>
<polyline fill="none" stroke="gray" points="609.5,-517 603.5,-517 "/>
<text text-anchor="start" x="447" y="-502" font-family="Times,serif" font-size="10.00">type:</text>
<text text-anchor="start" x="487" y="-502" font-family="Times,serif" font-size="10.00">data processing</text>
</g>
<!-- &#45;attrs3&#45;&gt;http://pubt.comDataProc -->
<g id="edge9" class="edge"><title>&#45;attrs3&#45;&gt;http://pubt.comDataProc</title>
<path fill="none" stroke="gray" stroke-dasharray="5,2" d="M494.274,-523.168C473.194,-535.767 444.688,-552.804 423.63,-565.389"/>
</g>
<!-- http://pubt.comDCV_Dataset -->
<g id="node22" class="node"><title>http://pubt.comDCV_Dataset</title>
<g id="a_node22"><a xlink:href="http://pubt.comDCV_Dataset" xlink:title="DCV_Dataset">
<ellipse fill="#fffc87" stroke="#808080" cx="354" cy="-505" rx="64.189" ry="18"/>
<text text-anchor="middle" x="354" y="-501.3" font-family="Times,serif" font-size="14.00">DCV_Dataset</text>
</a>
</g>
</g>
<!-- http://pubt.comShare&#45;&gt;http://pubt.comDCV_Dataset -->
<g id="edge22" class="edge"><title>http://pubt.comShare&#45;&gt;http://pubt.comDCV_Dataset</title>
<path fill="none" stroke="black" d="M343.95,-444.859C345.557,-454.315 347.581,-466.228 349.391,-476.88"/>
<polygon fill="black" stroke="black" points="345.981,-477.701 351.107,-486.973 352.882,-476.528 345.981,-477.701"/>
<text text-anchor="middle" x="358.013" y="-448.177" font-family="Times,serif" font-size="8.00">use</text>
</g>
<!-- http://pubt.combob -->
<g id="node26" class="node"><title>http://pubt.combob</title>
<g id="a_node26"><a xlink:href="http://pubt.combob" xlink:title="bob">
<polygon fill="#fdb266" stroke="black" points="229.164,-510.562 198,-523 166.836,-510.562 166.865,-490.438 229.135,-490.438 229.164,-510.562"/>
<text text-anchor="middle" x="198" y="-501.3" font-family="Times,serif" font-size="14.00">bob</text>
</a>
</g>
</g>
<!-- http://pubt.comShare&#45;&gt;http://pubt.combob -->
<g id="edge25" class="edge"><title>http://pubt.comShare&#45;&gt;http://pubt.combob</title>
<path fill="none" stroke="black" d="M314.925,-444.525C311.291,-446.762 307.577,-448.977 304,-451 282.046,-463.417 256.812,-476.095 236.473,-485.937"/>
<polygon fill="black" stroke="black" points="234.708,-482.902 227.211,-490.387 237.74,-489.211 234.708,-482.902"/>
<text text-anchor="middle" x="315.324" y="-457.62" font-family="Times,serif" font-size="8.00">assoc</text>
</g>
<!-- &#45;attrs4 -->
<g id="node13" class="node"><title>&#45;attrs4</title>
<polygon fill="none" stroke="gray" points="613,-366 63,-366 63,-330 619,-330 619,-360 613,-366"/>
<polyline fill="none" stroke="gray" points="613,-366 613,-360 "/>
<polyline fill="none" stroke="gray" points="619,-360 613,-360 "/>
<text text-anchor="start" x="73" y="-345" font-family="Times,serif" font-size="10.00">type:</text>
<text text-anchor="start" x="113" y="-345" font-family="Times,serif" font-size="10.00">Sharing disclosure&#45;controlled version of the data with Barsetshire</text>
</g>
<!-- &#45;attrs4&#45;&gt;http://pubt.comShare -->
<g id="edge10" class="edge"><title>&#45;attrs4&#45;&gt;http://pubt.comShare</title>
<path fill="none" stroke="gray" stroke-dasharray="5,2" d="M341,-366.359C341,-378.967 341,-395.943 341,-408.473"/>
</g>
<!-- http://pubt.comc1 -->
<g id="node16" class="node"><title>http://pubt.comc1</title>
<g id="a_node16"><a xlink:href="http://pubt.comc1" xlink:title="c1">
<ellipse fill="#fffc87" stroke="#808080" cx="589" cy="-734" rx="27" ry="18"/>
<text text-anchor="middle" x="589" y="-730.3" font-family="Times,serif" font-size="14.00">c1</text>
</a>
</g>
</g>
<!-- http://pubt.comCPD&#45;&gt;http://pubt.comc1 -->
<g id="edge16" class="edge"><title>http://pubt.comCPD&#45;&gt;http://pubt.comc1</title>
<path fill="none" stroke="black" d="M430.18,-673.383C435.014,-675.646 440.155,-677.969 445,-680 465.492,-688.59 520.423,-708.49 556.208,-721.312"/>
<polygon fill="black" stroke="black" points="555.155,-724.653 565.75,-724.726 557.513,-718.062 555.155,-724.653"/>
</g>
<!-- http://pubt.comc2 -->
<g id="node18" class="node"><title>http://pubt.comc2</title>
<g id="a_node18"><a xlink:href="http://pubt.comc2" xlink:title="c2">
<ellipse fill="#fffc87" stroke="#808080" cx="289" cy="-734" rx="27" ry="18"/>
<text text-anchor="middle" x="289" y="-730.3" font-family="Times,serif" font-size="14.00">c2</text>
</a>
</g>
</g>
<!-- http://pubt.comCPD&#45;&gt;http://pubt.comc2 -->
<g id="edge17" class="edge"><title>http://pubt.comCPD&#45;&gt;http://pubt.comc2</title>
<path fill="none" stroke="black" d="M389.184,-674.559C369.73,-685.908 339.843,-703.342 317.772,-716.216"/>
<polygon fill="black" stroke="black" points="315.719,-713.362 308.845,-721.424 319.246,-719.408 315.719,-713.362"/>
</g>
<!-- http://pubt.comc3 -->
<g id="node19" class="node"><title>http://pubt.comc3</title>
<g id="a_node19"><a xlink:href="http://pubt.comc3" xlink:title="c3">
<ellipse fill="#fffc87" stroke="#808080" cx="361" cy="-734" rx="27" ry="18"/>
<text text-anchor="middle" x="361" y="-730.3" font-family="Times,serif" font-size="14.00">c3</text>
</a>
</g>
</g>
<!-- http://pubt.comCPD&#45;&gt;http://pubt.comc3 -->
<g id="edge18" class="edge"><title>http://pubt.comCPD&#45;&gt;http://pubt.comc3</title>
<path fill="none" stroke="black" d="M398.108,-678.884C392.032,-687.745 384.34,-698.963 377.536,-708.885"/>
<polygon fill="black" stroke="black" points="374.618,-706.952 371.849,-717.179 380.391,-710.911 374.618,-706.952"/>
</g>
<!-- http://pubt.comc4 -->
<g id="node20" class="node"><title>http://pubt.comc4</title>
<g id="a_node20"><a xlink:href="http://pubt.comc4" xlink:title="c4">
<ellipse fill="#fffc87" stroke="#808080" cx="433" cy="-734" rx="27" ry="18"/>
<text text-anchor="middle" x="433" y="-730.3" font-family="Times,serif" font-size="14.00">c4</text>
</a>
</g>
</g>
<!-- http://pubt.comCPD&#45;&gt;http://pubt.comc4 -->
<g id="edge19" class="edge"><title>http://pubt.comCPD&#45;&gt;http://pubt.comc4</title>
<path fill="none" stroke="black" d="M414.81,-679.945C417.551,-687.941 420.887,-697.669 423.949,-706.6"/>
<polygon fill="black" stroke="black" points="420.69,-707.887 427.244,-716.211 427.311,-705.616 420.69,-707.887"/>
</g>
<!-- http://pubt.comcn -->
<g id="node21" class="node"><title>http://pubt.comcn</title>
<g id="a_node21"><a xlink:href="http://pubt.comcn" xlink:title="cn">
<ellipse fill="#fffc87" stroke="#808080" cx="505" cy="-734" rx="27" ry="18"/>
<text text-anchor="middle" x="505" y="-730.3" font-family="Times,serif" font-size="14.00">cn</text>
</a>
</g>
</g>
<!-- http://pubt.comCPD&#45;&gt;http://pubt.comcn -->
<g id="edge20" class="edge"><title>http://pubt.comCPD&#45;&gt;http://pubt.comcn</title>
<path fill="none" stroke="black" d="M426.608,-675.839C441.358,-686.595 462.613,-702.093 479.271,-714.239"/>
<polygon fill="black" stroke="black" points="477.362,-717.179 487.504,-720.242 481.486,-711.523 477.362,-717.179"/>
</g>
<!-- &#45;attrs5 -->
<g id="node15" class="node"><title>&#45;attrs5</title>
<polygon fill="none" stroke="gray" points="680,-601.5 452,-601.5 452,-565.5 686,-565.5 686,-595.5 680,-601.5"/>
<polyline fill="none" stroke="gray" points="680,-601.5 680,-595.5 "/>
<polyline fill="none" stroke="gray" points="686,-595.5 680,-595.5 "/>
<text text-anchor="start" x="462" y="-587.5" font-family="Times,serif" font-size="10.00">type:</text>
<text text-anchor="start" x="510" y="-587.5" font-family="Times,serif" font-size="10.00">prov:Collection</text>
<text text-anchor="start" x="462" y="-574.5" font-family="Times,serif" font-size="10.00">label:</text>
<text text-anchor="start" x="510" y="-574.5" font-family="Times,serif" font-size="10.00">customer personal data</text>
</g>
<!-- &#45;attrs5&#45;&gt;http://pubt.comCPD -->
<g id="edge11" class="edge"><title>&#45;attrs5&#45;&gt;http://pubt.comCPD</title>
<path fill="none" stroke="gray" stroke-dasharray="5,2" d="M533.093,-601.668C501.583,-616.734 456.8,-638.146 430.535,-650.703"/>
</g>
<!-- &#45;attrs6 -->
<g id="node17" class="node"><title>&#45;attrs6</title>
<polygon fill="none" stroke="gray" points="742,-680 454,-680 454,-644 748,-644 748,-674 742,-680"/>
<polyline fill="none" stroke="gray" points="742,-680 742,-674 "/>
<polyline fill="none" stroke="gray" points="748,-674 742,-674 "/>
<text text-anchor="start" x="464" y="-659" font-family="Times,serif" font-size="10.00">label:</text>
<text text-anchor="start" x="512" y="-659" font-family="Times,serif" font-size="10.00">Perosnal record of customer c1</text>
</g>
<!-- &#45;attrs6&#45;&gt;http://pubt.comc1 -->
<g id="edge12" class="edge"><title>&#45;attrs6&#45;&gt;http://pubt.comc1</title>
<path fill="none" stroke="gray" stroke-dasharray="5,2" d="M598.034,-680.303C596.174,-691.154 593.786,-705.083 591.932,-715.896"/>
</g>
<!-- http://pubt.comDCV_Dataset&#45;&gt;http://pubt.comDataProc -->
<g id="edge23" class="edge"><title>http://pubt.comDCV_Dataset&#45;&gt;http://pubt.comDataProc</title>
<path fill="none" stroke="black" d="M363.099,-522.978C368.37,-532.813 375.116,-545.4 381.046,-556.464"/>
<polygon fill="black" stroke="black" points="377.976,-558.144 385.784,-565.305 384.145,-554.838 377.976,-558.144"/>
<text text-anchor="middle" x="378.092" y="-521.552" font-family="Times,serif" font-size="8.00">gen</text>
</g>
<!-- &#45;attrs7 -->
<g id="node23" class="node"><title>&#45;attrs7</title>
<polygon fill="none" stroke="gray" points="756,-444.5 386,-444.5 386,-408.5 762,-408.5 762,-438.5 756,-444.5"/>
<polyline fill="none" stroke="gray" points="756,-444.5 756,-438.5 "/>
<polyline fill="none" stroke="gray" points="762,-438.5 756,-438.5 "/>
<text text-anchor="start" x="396" y="-423.5" font-family="Times,serif" font-size="10.00">label:</text>
<text text-anchor="start" x="444" y="-423.5" font-family="Times,serif" font-size="10.00">disclosure&#45;controlled version of the data</text>
</g>
<!-- &#45;attrs7&#45;&gt;http://pubt.comDCV_Dataset -->
<g id="edge13" class="edge"><title>&#45;attrs7&#45;&gt;http://pubt.comDCV_Dataset</title>
<path fill="none" stroke="gray" stroke-dasharray="5,2" d="M524.902,-444.573C485.01,-458.444 429.516,-477.741 392.716,-490.537"/>
</g>
<!-- &#45;attrs8 -->
<g id="node25" class="node"><title>&#45;attrs8</title>
<polygon fill="none" stroke="gray" points="332,-608 44,-608 44,-559 338,-559 338,-602 332,-608"/>
<polyline fill="none" stroke="gray" points="332,-608 332,-602 "/>
<polyline fill="none" stroke="gray" points="338,-602 332,-602 "/>
<text text-anchor="start" x="54" y="-593.5" font-family="Times,serif" font-size="10.00">type:</text>
<text text-anchor="start" x="132" y="-593.5" font-family="Times,serif" font-size="10.00">Person</text>
<text text-anchor="start" x="54" y="-580.5" font-family="Times,serif" font-size="10.00">givenName:</text>
<text text-anchor="start" x="132" y="-580.5" font-family="Times,serif" font-size="10.00">Derek</text>
<text text-anchor="start" x="54" y="-567.5" font-family="Times,serif" font-size="10.00">mbox:</text>
<text text-anchor="start" x="132" y="-567.5" font-family="Times,serif" font-size="10.00">&lt;mailto:derek@example.org&gt;</text>
</g>
<!-- &#45;attrs8&#45;&gt;http://pubt.comderek -->
<g id="edge14" class="edge"><title>&#45;attrs8&#45;&gt;http://pubt.comderek</title>
<path fill="none" stroke="gray" stroke-dasharray="5,2" d="M211.21,-608.286C222.092,-621.093 235.13,-636.438 244.325,-647.26"/>
</g>
<!-- &#45;attrs9 -->
<g id="node27" class="node"><title>&#45;attrs9</title>
<polygon fill="none" stroke="gray" points="289.5,-451 16.5,-451 16.5,-402 295.5,-402 295.5,-445 289.5,-451"/>
<polyline fill="none" stroke="gray" points="289.5,-451 289.5,-445 "/>
<polyline fill="none" stroke="gray" points="295.5,-445 289.5,-445 "/>
<text text-anchor="start" x="27" y="-436.5" font-family="Times,serif" font-size="10.00">type:</text>
<text text-anchor="start" x="105" y="-436.5" font-family="Times,serif" font-size="10.00">Person</text>
<text text-anchor="start" x="27" y="-423.5" font-family="Times,serif" font-size="10.00">givenName:</text>
<text text-anchor="start" x="105" y="-423.5" font-family="Times,serif" font-size="10.00">Bob</text>
<text text-anchor="start" x="27" y="-410.5" font-family="Times,serif" font-size="10.00">mbox:</text>
<text text-anchor="start" x="105" y="-410.5" font-family="Times,serif" font-size="10.00">&lt;mailto:bob@example.org&gt;</text>
</g>
<!-- &#45;attrs9&#45;&gt;http://pubt.combob -->
<g id="edge15" class="edge"><title>&#45;attrs9&#45;&gt;http://pubt.combob</title>
<path fill="none" stroke="gray" stroke-dasharray="5,2" d="M169.059,-451.286C176.09,-464.093 184.515,-479.438 190.456,-490.26"/>
</g>
</g>
</svg>
